<svg width="15" height="15" viewBox="0 0 15 15" fill="none" xmlns="http://www.w3.org/2000/svg">
<path d="M10.0006 0H5.00031V1.42857H10.0006V0ZM13.3592 4.56429L14.5426 3.55C14.1842 3.18571 13.7925 2.84286 13.3675 2.54286L12.1841 3.55714C10.8568 2.64166 9.20419 2.14264 7.50047 2.14286C3.35854 2.14286 0 5.02143 0 8.57143C0 12.1214 3.35021 15 7.50047 15C8.91248 15.0007 10.296 14.6594 11.4917 14.0157C12.6873 13.3719 13.6465 12.4518 14.2588 11.3612C14.871 10.2707 15.1114 9.05412 14.9522 7.85161C14.7931 6.6491 14.2409 5.50958 13.3592 4.56429V4.56429ZM7.50047 13.5714C4.27527 13.5714 1.66677 11.3357 1.66677 8.57143C1.66677 5.80714 4.27527 3.57143 7.50047 3.57143C10.7257 3.57143 13.3342 5.80714 13.3342 8.57143C13.3342 11.3357 10.7257 13.5714 7.50047 13.5714ZM7.23379 10H2.79184C3.02802 10.5724 3.40356 11.0951 3.89353 11.5335C4.38349 11.9719 4.97668 12.316 5.63369 12.5429L5.54202 12.5L7.23379 10ZM12.2091 7.14286C11.9764 6.57837 11.6086 6.06182 11.1292 5.62636C10.6499 5.19091 10.0696 4.84617 9.42559 4.61429L7.71715 7.14286H12.2091ZM6.34207 12.7357C6.71709 12.8143 7.10045 12.8571 7.50047 12.8571C8.61721 12.8571 9.64227 12.5357 10.4757 12.0071L8.71722 9.22143L6.34207 12.7357V12.7357ZM3.79191 5.70714C2.96091 6.4911 2.50039 7.51224 2.50016 8.57143C2.50016 8.81429 2.53349 9.05 2.57516 9.28571H6.50874L3.79191 5.70714ZM11.1174 11.5214C12.0072 10.7289 12.5032 9.67128 12.5008 8.57143C12.5008 8.32857 12.4675 8.09286 12.4258 7.85714H8.80889L11.1174 11.5214V11.5214ZM8.60887 4.39286C8.25052 4.32857 7.88383 4.28571 7.50047 4.28571C6.33373 4.28571 5.25866 4.63571 4.40861 5.20714L6.34207 7.75L8.60887 4.39286V4.39286Z" fill="white"/>
</svg>
