<svg width="15" height="15" viewBox="0 0 15 15" fill="none" xmlns="http://www.w3.org/2000/svg">
<path d="M15 7.5C15 11.6422 13.2733 15 11.1425 15H4.71417C5.43667 14.5793 6.09417 13.8375 6.5475 12.957C7.275 11.541 7.71417 9.612 7.71417 7.5C7.71417 5.38875 7.275 3.459 6.5475 2.043C6.09333 1.16175 5.43583 0.42 4.71333 0H11.1417C13.2733 0 15 3.35775 15 7.5Z" fill="white"/>
<path fill-rule="evenodd" clip-rule="evenodd" d="M1.09167 2.3505C0.425 3.6495 0 5.46975 0 7.5C0 9.53025 0.424167 11.3505 1.09167 12.6495C1.77833 13.983 2.6375 14.625 3.42833 14.625C4.22 14.625 5.07917 13.983 5.765 12.6495C6.43333 11.3505 6.85667 9.53025 6.85667 7.5C6.85667 5.46975 6.43333 3.6495 5.765 2.3505C5.07917 1.017 4.22 0.375 3.42833 0.375C2.63667 0.375 1.77833 1.017 1.09167 2.3505ZM2.1425 7.5C2.1425 9.9855 2.71833 12 3.42833 12C4.08417 12 4.625 10.2825 4.70417 8.0625H3.85833C3.77502 8.06369 3.69227 8.05007 3.61481 8.02243C3.53736 7.99479 3.46673 7.95366 3.40696 7.90141C3.3472 7.84915 3.29948 7.7868 3.26654 7.71792C3.2336 7.64904 3.21609 7.57498 3.215 7.5C3.21609 7.42502 3.2336 7.35096 3.26654 7.28208C3.29948 7.2132 3.3472 7.15085 3.40696 7.09859C3.46673 7.04634 3.53736 7.00521 3.61481 6.97757C3.69227 6.94993 3.77502 6.93631 3.85833 6.9375H4.705C4.625 4.7175 4.08417 3 3.42917 3C2.7175 3 2.1425 5.0145 2.1425 7.5Z" fill="white"/>
</svg>
