<svg width="15" height="15" viewBox="0 0 15 15" fill="none" xmlns="http://www.w3.org/2000/svg">
<path d="M8.30821 3.04688C8.30821 3.43652 7.94975 3.75 7.50419 3.75C7.05863 3.75 6.70017 3.43652 6.70017 3.04688V0.703125C6.70017 0.314941 7.05863 0 7.50419 0C7.94975 0 8.30821 0.314941 8.30821 0.703125V3.04688ZM5.15243 4.6875H9.85595C10.9581 4.6875 11.9966 5.31152 12.3786 6.24316L13.3266 8.56641C14 8.81543 14.4724 9.39844 14.4724 10.0781V14.0625C14.4724 14.5811 13.9933 15 13.4003 15H12.8643C12.2714 15 11.7923 14.5811 11.7923 14.0625V13.125H3.21608V14.0625C3.21608 14.5811 2.73601 15 2.14405 15H1.60804C1.01608 15 0.536013 14.5811 0.536013 14.0625V10.0781C0.536013 9.39844 1.00771 8.81543 1.6804 8.56641L2.62948 6.24316C3.01039 5.31152 4.0201 4.6875 5.15243 4.6875ZM5.15243 6.5625C4.92797 6.5625 4.72362 6.68848 4.64992 6.87305L4.01005 8.4375H10.9983L10.3585 6.87305C10.2546 6.68848 10.0804 6.5625 9.85595 6.5625H5.15243ZM3.21608 11.4844C3.66164 11.4844 4.0201 11.1709 4.0201 10.7813C4.0201 10.3916 3.66164 10.0781 3.21608 10.0781C2.77219 10.0781 2.41206 10.3916 2.41206 10.7813C2.41206 11.1709 2.77219 11.4844 3.21608 11.4844ZM11.7923 10.0781C11.3467 10.0781 10.9883 10.3916 10.9883 10.7813C10.9883 11.1709 11.3467 11.4844 11.7923 11.4844C12.2379 11.4844 12.5963 11.1709 12.5963 10.7813C12.5963 10.3916 12.2379 10.0781 11.7923 10.0781ZM0.235477 1.14346C0.549414 0.868945 1.05863 0.868945 1.37253 1.14346L2.98057 2.54971C3.29447 2.82422 3.29447 3.26953 2.98057 3.51855C2.66667 3.81738 2.15745 3.81738 1.84355 3.51855L0.235477 2.13779C-0.0784925 1.86328 -0.0784925 1.41797 0.235477 1.14346ZM13.6348 1.14346C13.9497 0.868945 14.459 0.868945 14.7437 1.14346C15.0854 1.41797 15.0854 1.86328 14.7437 2.13779L13.1357 3.51855C12.8509 3.81738 12.3417 3.81738 12.0268 3.51855C11.7152 3.26953 11.7152 2.82422 12.0268 2.54971L13.6348 1.14346Z" fill="white"/>
</svg>
