<svg width="24" height="24" viewBox="0 0 24 24" fill="none" xmlns="http://www.w3.org/2000/svg">
<rect width="24" height="24" rx="3" fill="white" fill-opacity="0.02"/>
<path d="M17.9455 16.1709L14.4469 8.11102H17.5534C17.6647 8.11419 17.7726 8.06233 17.8554 7.96598C17.9382 7.86964 17.9896 7.73603 17.9991 7.59234C18.003 7.51636 17.9947 7.44016 17.975 7.36846C17.9552 7.29676 17.9242 7.2311 17.8841 7.17555C17.8439 7.12001 17.7953 7.07577 17.7414 7.04558C17.6875 7.0154 17.6293 6.9999 17.5706 7.00007H6.44443C6.33366 6.99779 6.22635 7.05005 6.14415 7.14631C6.06194 7.24257 6.01096 7.37566 6.00148 7.51874C5.99759 7.59473 6.00579 7.67093 6.02557 7.74263C6.04536 7.81433 6.0763 7.87999 6.11649 7.93553C6.15667 7.99108 6.20523 8.03532 6.25916 8.0655C6.31309 8.09569 6.37123 8.11118 6.42997 8.11102H9.55362L6.05504 16.1709C6.01013 16.2744 5.99198 16.3938 6.00326 16.5117C6.01454 16.6295 6.05465 16.7396 6.11771 16.8257C6.15944 16.8812 6.20945 16.9252 6.26469 16.9549C6.31994 16.9846 6.37926 16.9995 6.43907 16.9986H11.3575C11.4144 16.9986 11.4689 16.9693 11.509 16.9172C11.5492 16.8651 11.5718 16.7945 11.5718 16.7208V15.3509C11.5703 15.2076 11.6107 15.0688 11.685 14.9625C11.7592 14.8562 11.8617 14.7903 11.9719 14.7781C12.0305 14.773 12.0893 14.7837 12.1446 14.8093C12.1999 14.835 12.2505 14.8751 12.2934 14.9272C12.3362 14.9793 12.3704 15.0422 12.3936 15.1121C12.4169 15.182 12.4289 15.2574 12.4288 15.3335V16.7222C12.4288 16.7959 12.4513 16.8665 12.4915 16.9186C12.5317 16.9707 12.5862 17 12.643 17H17.5583C17.6181 17.0009 17.6774 16.986 17.7326 16.9563C17.7879 16.9266 17.8379 16.8826 17.8796 16.8271C17.9434 16.7413 17.9843 16.6312 17.9961 16.5131C18.008 16.3949 17.9903 16.275 17.9455 16.1709ZM12.4288 12.8325C12.4288 12.9799 12.3836 13.1211 12.3033 13.2253C12.2229 13.3295 12.1139 13.388 12.0003 13.388C11.8866 13.388 11.7776 13.3295 11.6973 13.2253C11.6169 13.1211 11.5718 12.9799 11.5718 12.8325V11.7216C11.5718 11.5743 11.6169 11.433 11.6973 11.3288C11.7776 11.2246 11.8866 11.1661 12.0003 11.1661C12.1139 11.1661 12.2229 11.2246 12.3033 11.3288C12.3836 11.433 12.4288 11.5743 12.4288 11.7216V12.8325ZM12.4288 9.22196C12.4288 9.36928 12.3836 9.51057 12.3033 9.61474C12.2229 9.71891 12.1139 9.77743 12.0003 9.77743C11.8866 9.77743 11.7776 9.71891 11.6973 9.61474C11.6169 9.51057 11.5718 9.36928 11.5718 9.22196V8.66649C11.5718 8.51917 11.6169 8.37788 11.6973 8.27371C11.7776 8.16954 11.8866 8.11102 12.0003 8.11102C12.1139 8.11102 12.2229 8.16954 12.3033 8.27371C12.3836 8.37788 12.4288 8.51917 12.4288 8.66649V9.22196Z" fill="#5F9ADF"/>
</svg>
