<svg width="15" height="15" viewBox="0 0 15 15" fill="none" xmlns="http://www.w3.org/2000/svg">
<path d="M13.7834 4.25888L12.8594 5.99738C13.305 7.10915 13.5232 8.34185 13.4943 9.58501C13.4655 10.8282 13.1905 12.043 12.6941 13.1205H2.28218C1.637 11.7204 1.36966 10.0975 1.51979 8.49243C1.66992 6.88732 2.22952 5.38546 3.11565 4.20948C4.00177 3.03351 5.16723 2.24602 6.43926 1.96378C7.71128 1.68154 9.02216 1.91956 10.1775 2.64255L11.5673 1.48668C10.1524 0.351695 8.47401 -0.156897 6.80071 0.0422611C5.1274 0.241419 3.55584 1.13682 2.33739 2.58524C1.11894 4.03366 0.324009 5.9514 0.0797523 8.03172C-0.164504 10.112 0.156026 12.2347 0.990073 14.0603C1.12117 14.3443 1.30941 14.5805 1.53609 14.7454C1.76276 14.9102 2.01998 14.998 2.28218 15H12.6866C12.9514 15.0013 13.2117 14.9151 13.4412 14.7501C13.6708 14.585 13.8614 14.3471 13.9938 14.0603C14.6859 12.5604 15.0333 10.8504 14.9975 9.11912C14.9617 7.38784 14.5441 5.70261 13.7909 4.24949L13.7834 4.25888Z" fill="white"/>
<path d="M6.42894 10.6866C6.56847 10.8614 6.73418 11 6.91657 11.0946C7.09896 11.1892 7.29447 11.2378 7.49192 11.2378C7.68936 11.2378 7.88487 11.1892 8.06727 11.0946C8.24966 11 8.41536 10.8614 8.5549 10.6866L12.8068 2.70833L6.42894 8.0272C6.28924 8.20175 6.17842 8.40903 6.10281 8.63719C6.0272 8.86536 5.98829 9.10992 5.98829 9.35691C5.98829 9.6039 6.0272 9.84847 6.10281 10.0766C6.17842 10.3048 6.28924 10.5121 6.42894 10.6866Z" fill="white"/>
</svg>
