<svg width="12" height="11" viewBox="0 0 12 11" fill="none" xmlns="http://www.w3.org/2000/svg">
<path d="M6 6.45387C6.88368 6.45387 7.60005 5.80265 7.60005 4.99933C7.60005 4.19601 6.88368 3.54478 6 3.54478C5.11632 3.54478 4.39995 4.19601 4.39995 4.99933C4.39995 5.80265 5.11632 6.45387 6 6.45387Z" fill="white" fill-opacity="0.34"/>
<path d="M11.9762 4.87569C11.5057 3.76938 10.6889 2.81264 9.62682 2.12372C8.56472 1.4348 7.30383 1.0439 6 0.999329C4.69617 1.0439 3.43528 1.4348 2.37318 2.12372C1.31107 2.81264 0.494308 3.76938 0.0238305 4.87569C-0.0079435 4.95559 -0.0079435 5.04307 0.0238305 5.12297C0.494308 6.22927 1.31107 7.18601 2.37318 7.87493C3.43528 8.56385 4.69617 8.95476 6 8.99933C7.30383 8.95476 8.56472 8.56385 9.62682 7.87493C10.6889 7.18601 11.5057 6.22927 11.9762 5.12297C12.0079 5.04307 12.0079 4.95559 11.9762 4.87569ZM6 7.36297C5.48575 7.36297 4.98306 7.22434 4.55548 6.96462C4.1279 6.7049 3.79464 6.33575 3.59785 5.90385C3.40105 5.47196 3.34956 4.99671 3.44989 4.53821C3.55021 4.07971 3.79784 3.65855 4.16147 3.32799C4.5251 2.99742 4.98839 2.77231 5.49275 2.68111C5.99712 2.58991 6.5199 2.63672 6.995 2.81561C7.47011 2.99451 7.87618 3.29746 8.16188 3.68616C8.44758 4.07486 8.60007 4.53185 8.60007 4.99933C8.59902 5.62591 8.32474 6.22655 7.83736 6.66961C7.34998 7.11267 6.68926 7.362 6 7.36297Z" fill="white" fill-opacity="0.34"/>
</svg>
