<svg width="15" height="16" viewBox="0 0 15 16" fill="none" xmlns="http://www.w3.org/2000/svg">
<path d="M15 7.70459C15 11.8468 13.2733 15.2046 11.1425 15.2046H4.71417C5.43667 14.7838 6.09417 14.0421 6.5475 13.1616C7.275 11.7456 7.71417 9.81659 7.71417 7.70459C7.71417 5.59334 7.275 3.66359 6.5475 2.24759C6.09333 1.36634 5.43583 0.62459 4.71333 0.20459H11.1417C13.2733 0.20459 15 3.56234 15 7.70459Z" fill="white"/>
<path fill-rule="evenodd" clip-rule="evenodd" d="M1.09167 2.55509C0.425 3.85409 0 5.67434 0 7.70459C0 9.73484 0.424167 11.5551 1.09167 12.8541C1.77833 14.1876 2.6375 14.8296 3.42833 14.8296C4.22 14.8296 5.07917 14.1876 5.765 12.8541C6.43333 11.5551 6.85667 9.73484 6.85667 7.70459C6.85667 5.67434 6.43333 3.85409 5.765 2.55509C5.07917 1.22159 4.22 0.57959 3.42833 0.57959C2.63667 0.57959 1.77833 1.22159 1.09167 2.55509ZM2.1425 7.70459C2.1425 10.1901 2.71833 12.2046 3.42833 12.2046C4.08417 12.2046 4.625 10.4871 4.70417 8.26709H3.85833C3.77502 8.26828 3.69227 8.25466 3.61481 8.22702C3.53736 8.19938 3.46673 8.15825 3.40696 8.106C3.3472 8.05374 3.29948 7.99139 3.26654 7.92251C3.2336 7.85363 3.21609 7.77957 3.215 7.70459C3.21609 7.62961 3.2336 7.55555 3.26654 7.48667C3.29948 7.41779 3.3472 7.35544 3.40696 7.30318C3.46673 7.25093 3.53736 7.2098 3.61481 7.18216C3.69227 7.15452 3.77502 7.1409 3.85833 7.14209H4.705C4.625 4.92209 4.08417 3.20459 3.42917 3.20459C2.7175 3.20459 2.1425 5.21909 2.1425 7.70459Z" fill="white"/>
</svg>
