<svg width="16" height="16" viewBox="0 0 16 16" fill="none" xmlns="http://www.w3.org/2000/svg">
<path d="M14.3731 4.46347L13.4491 6.20197C13.8947 7.31374 14.1128 8.54644 14.084 9.7896C14.0552 11.0328 13.7802 12.2475 13.2838 13.3251H2.87184C2.22666 11.925 1.95932 10.3021 2.10945 8.69702C2.25958 7.09191 2.81919 5.59004 3.70531 4.41407C4.59143 3.2381 5.75689 2.45061 7.02892 2.16837C8.30094 1.88613 9.61182 2.12415 10.7672 2.84714L12.157 1.69127C10.742 0.556285 9.06367 0.0476929 7.39037 0.246851C5.71706 0.446009 4.1455 1.34141 2.92705 2.78983C1.7086 4.23825 0.913669 6.15599 0.669413 8.23631C0.425157 10.3166 0.745687 12.4393 1.57973 14.2648C1.71083 14.5489 1.89907 14.7851 2.12575 14.95C2.35242 15.1148 2.60964 15.2026 2.87184 15.2046H13.2763C13.541 15.2059 13.8014 15.1197 14.0309 14.9546C14.2604 14.7896 14.451 14.5517 14.5834 14.2648C15.2756 12.765 15.6229 11.055 15.5871 9.32371C15.5514 7.59243 15.1338 5.9072 14.3806 4.45408L14.3731 4.46347Z" fill="white"/>
<path d="M7.0186 10.8912C7.15813 11.066 7.32384 11.2046 7.50623 11.2992C7.68862 11.3938 7.88413 11.4424 8.08158 11.4424C8.27902 11.4424 8.47453 11.3938 8.65693 11.2992C8.83932 11.2046 9.00502 11.066 9.14456 10.8912L13.3965 2.91292L7.0186 8.23179C6.8789 8.40634 6.76808 8.61362 6.69248 8.84178C6.61687 9.06995 6.57795 9.31451 6.57795 9.5615C6.57795 9.80849 6.61687 10.0531 6.69248 10.2812C6.76808 10.5094 6.8789 10.7167 7.0186 10.8912Z" fill="white"/>
</svg>
