<svg width="16" height="16" viewBox="0 0 16 16" fill="none" xmlns="http://www.w3.org/2000/svg">
<path d="M8.90855 3.25146C8.90855 3.64111 8.55009 3.95459 8.10453 3.95459C7.65897 3.95459 7.30051 3.64111 7.30051 3.25146V0.907715C7.30051 0.519531 7.65897 0.20459 8.10453 0.20459C8.55009 0.20459 8.90855 0.519531 8.90855 0.907715V3.25146ZM5.75277 4.89209H10.4563C11.5585 4.89209 12.597 5.51611 12.9789 6.44775L13.927 8.771C14.6003 9.02002 15.0727 9.60303 15.0727 10.2827V14.2671C15.0727 14.7856 14.5936 15.2046 14.0007 15.2046H13.4647C12.8717 15.2046 12.3926 14.7856 12.3926 14.2671V13.3296H3.81642V14.2671C3.81642 14.7856 3.33636 15.2046 2.7444 15.2046H2.20838C1.61642 15.2046 1.13636 14.7856 1.13636 14.2671V10.2827C1.13636 9.60303 1.60805 9.02002 2.28074 8.771L3.22982 6.44775C3.61073 5.51611 4.62044 4.89209 5.75277 4.89209ZM5.75277 6.76709C5.52832 6.76709 5.32396 6.89307 5.25026 7.07764L4.61039 8.64209H11.5987L10.9588 7.07764C10.8549 6.89307 10.6807 6.76709 10.4563 6.76709H5.75277ZM3.81642 11.689C4.26198 11.689 4.62044 11.3755 4.62044 10.9858C4.62044 10.5962 4.26198 10.2827 3.81642 10.2827C3.37254 10.2827 3.0124 10.5962 3.0124 10.9858C3.0124 11.3755 3.37254 11.689 3.81642 11.689ZM12.3926 10.2827C11.9471 10.2827 11.5886 10.5962 11.5886 10.9858C11.5886 11.3755 11.9471 11.689 12.3926 11.689C12.8382 11.689 13.1967 11.3755 13.1967 10.9858C13.1967 10.5962 12.8382 10.2827 12.3926 10.2827ZM0.835819 1.34805C1.14976 1.07354 1.65897 1.07354 1.97287 1.34805L3.58091 2.7543C3.89481 3.02881 3.89481 3.47412 3.58091 3.72314C3.26701 4.02197 2.7578 4.02197 2.44389 3.72314L0.835819 2.34238C0.521849 2.06787 0.521849 1.62256 0.835819 1.34805ZM14.2352 1.34805C14.5501 1.07354 15.0593 1.07354 15.3441 1.34805C15.6858 1.62256 15.6858 2.06787 15.3441 2.34238L13.736 3.72314C13.4513 4.02197 12.9421 4.02197 12.6271 3.72314C12.3156 3.47412 12.3156 3.02881 12.6271 2.7543L14.2352 1.34805Z" fill="white"/>
</svg>
