<svg width="16" height="16" viewBox="0 0 16 16" fill="none" xmlns="http://www.w3.org/2000/svg">
<path d="M10.0113 0.20459H5.01099V1.63316H10.0113V0.20459ZM13.3698 4.76888L14.5533 3.75459C14.1949 3.3903 13.8032 3.04745 13.3782 2.74745L12.1948 3.76173C10.8675 2.84625 9.21486 2.34723 7.51115 2.34745C3.36922 2.34745 0.0106735 5.22602 0.0106735 8.77602C0.0106735 12.326 3.36088 15.2046 7.51115 15.2046C8.92316 15.2052 10.3067 14.864 11.5023 14.2203C12.698 13.5765 13.6572 12.6564 14.2694 11.5658C14.8817 10.4753 15.1221 9.25871 14.9629 8.0562C14.8038 6.85369 14.2515 5.71417 13.3698 4.76888V4.76888ZM7.51115 13.776C4.28594 13.776 1.67745 11.5403 1.67745 8.77602C1.67745 6.01173 4.28594 3.77602 7.51115 3.77602C10.7363 3.77602 13.3448 6.01173 13.3448 8.77602C13.3448 11.5403 10.7363 13.776 7.51115 13.776ZM7.24446 10.2046H2.80252C3.03869 10.7769 3.41423 11.2997 3.9042 11.7381C4.39417 12.1765 4.98735 12.5206 5.64436 12.7474L5.55269 12.7046L7.24446 10.2046ZM12.2198 7.34745C11.9871 6.78296 11.6193 6.26641 11.1399 5.83095C10.6605 5.3955 10.0802 5.05076 9.43627 4.81888L7.72783 7.34745H12.2198ZM6.35274 12.9403C6.72776 13.0189 7.11112 13.0617 7.51115 13.0617C8.62788 13.0617 9.65295 12.7403 10.4863 12.2117L8.72789 9.42602L6.35274 12.9403V12.9403ZM3.80258 5.91173C2.97158 6.69569 2.51106 7.71683 2.51083 8.77602C2.51083 9.01888 2.54417 9.25459 2.58584 9.4903H6.51942L3.80258 5.91173ZM11.128 11.726C12.0179 10.9335 12.5139 9.87587 12.5115 8.77602C12.5115 8.53316 12.4781 8.29745 12.4365 8.06173H8.81956L11.128 11.726V11.726ZM8.61955 4.59745C8.26119 4.53316 7.8945 4.4903 7.51115 4.4903C6.34441 4.4903 5.26934 4.8403 4.41928 5.41173L6.35274 7.95459L8.61955 4.59745V4.59745Z" fill="white"/>
</svg>
