<svg width="336" height="202" viewBox="0 0 336 202" fill="none" xmlns="http://www.w3.org/2000/svg">
<g clip-path="url(#clip0_346_327)">
<path d="M2 0V1L110 67H85L0 16V24L70 65L69 67L0 68V81H148V0H135L134 56L41 1L40 0H2Z" fill="#FDFDFD"/>
<path d="M188 81H336V68L330 67L265 66L334 25L335 24H336V0H335L334 1L225 67H202L204 63L308 1V0H296L295 1L202 56L201 0H188V81Z" fill="#FDFDFD"/>
<path d="M0 121V134L69 135L70 137L0 178V202H1L2 201L3 200L111 135H134L132 139L29 200L28 201V202H40L41 201L133 145L134 194L135 202H148V121H0Z" fill="#FDFDFD"/>
<path d="M188 121V202H201L202 194L203 145L294 200L295 201L296 202H334V201L333 200L227 136L228 135H251L336 186V178H335L334 177L265 135H336V121H188Z" fill="#FDFDFD"/>
<path d="M148 81H0V121H148V202H188V121H336V81H188V0H148V81Z" fill="#C7102E"/>
<path d="M41 0V1L134 56V0H41Z" fill="#012067"/>
<path d="M202 0V56L295 1V0H202Z" fill="#012067"/>
<path d="M0 24V67H69L70 65L0 24Z" fill="#012067"/>
<path d="M335 24L334 25L265 66L330 67H336V24H335Z" fill="#012067"/>
<path d="M0 135V178L70 137L69 135H0Z" fill="#012067"/>
<path d="M265 135L334 177L335 178H336V135H265Z" fill="#012067"/>
<path d="M133 145L41 201V202H134V194L133 145Z" fill="#012067"/>
<path d="M203 145L202 194V202H295V201L294 200L203 145Z" fill="#012067"/>
<path d="M0 0V16L85 67H110L2 1L1 0H0Z" fill="#C51330"/>
<path d="M309 0L308 1L204 63L202 67H225L334 1V0H309Z" fill="#C51330"/>
<path d="M111 135L3 200L2 201V202H27L28 201L29 200L132 139L134 135H111Z" fill="#C51330"/>
<path d="M228 135L227 136L333 200L334 201L335 202H336V186L251 135H228Z" fill="#C51330"/>
<path d="M2 0H1V1H2V0Z" fill="#FDACBE"/>
<path d="M309 0H308V1H309V0Z" fill="#FDACBE"/>
<path d="M0 67V68L69 67H0Z" fill="#AFB5E0"/>
<path d="M0 134V135H69L0 134Z" fill="#AFB5E0"/>
<path fill-rule="evenodd" clip-rule="evenodd" d="M134 56V0H135L134 56ZM202 56L201 0H202V56ZM336 68L330 67H336V68ZM134 202V194L135 202H134ZM201 202L202 194V202H201Z" fill="#A3ABCB"/>
<path d="M41 0H40V1H41V0Z" fill="#5B6D96"/>
<path d="M296 0H295V1H296V0Z" fill="#5B6D96"/>
<path d="M335 0H334V1H335V0Z" fill="#CB707A"/>
<path d="M295 200H294V201H295V200Z" fill="#A3ABCB"/>
<path d="M2 201H1V202H2V201Z" fill="#C54A5F"/>
<path d="M3 200H2V201H3V200Z" fill="#EC8A97"/>
<path d="M28 200H29V201H28V202H27V201H28V200Z" fill="#EC8A97"/>
<path d="M333 200H334V201H335V202H334V201H333V200Z" fill="#EC8A97"/>
<path d="M296 201H295V202H296V201Z" fill="#3B4F6A"/>
<path d="M335 177H334V178H335V177Z" fill="#8594BC"/>
<path d="M41 201H40V202H41V201Z" fill="#5B6D96"/>
<path d="M335 24H334V25H335V24Z" fill="#8283A6"/>
</g>
<defs>
<clipPath id="clip0_346_327">
<rect width="336" height="202" fill="white"/>
</clipPath>
</defs>
</svg>
