<svg width="6" height="10" viewBox="0 0 6 10" fill="none" xmlns="http://www.w3.org/2000/svg">
<path d="M0.289273 0.355727C0.418273 0.218909 0.578546 0.0820909 0.645 0.0547273C0.711455 0.0273636 0.817 0.00390909 0.879546 0C0.946 0 1.075 0.0469091 1.17273 0.113364C1.27046 0.175909 2.35327 1.23527 3.58464 2.46664C5.46491 4.35473 5.82455 4.73391 5.84409 4.84728C5.85973 4.92155 5.85973 5.04664 5.848 5.12091C5.82846 5.23818 5.48837 5.59391 3.47127 7.611C1.72391 9.35446 1.08282 9.9721 0.996819 9.99164C0.930364 10.0034 0.817 10.0034 0.742728 9.98773C0.652819 9.96819 0.523818 9.88219 0.355727 9.71801C0.222818 9.589 0.086 9.43264 0.0547273 9.374C0.0234546 9.31146 0 9.202 0 9.12773C0 9.05346 0.0195455 8.95182 0.043 8.90491C0.0664546 8.8541 0.942091 7.95891 3.88955 5.00364L1.97018 3.08037C0.363546 1.46982 0.043 1.12973 0.0195455 1.01636C0.00390909 0.942091 0.00390909 0.817 0.0195455 0.742728C0.0390909 0.648909 0.125091 0.523818 0.289273 0.355727Z" fill="white"/>
</svg>
