<svg width="12" height="12" viewBox="0 0 12 12" fill="none" xmlns="http://www.w3.org/2000/svg">
<path d="M12 11.5C12 11.6326 11.9579 11.7598 11.8828 11.8536C11.8078 11.9473 11.7061 12 11.6 12H0.4C0.293913 12 0.192172 11.9473 0.117157 11.8536C0.0421427 11.7598 0 11.6326 0 11.5C0 11.3674 0.0421427 11.2402 0.117157 11.1465C0.192172 11.0527 0.293913 11 0.4 11H11.6C11.7061 11 11.8078 11.0527 11.8828 11.1465C11.9579 11.2402 12 11.3674 12 11.5ZM0.415 4.63784C0.391162 4.53306 0.395357 4.42141 0.426946 4.31988C0.458535 4.21835 0.515789 4.13249 0.59 4.07537L5.79 0.0755566C5.85292 0.0261878 5.92571 0 6 0C6.07429 0 6.14708 0.0261878 6.21 0.0755566L11.41 4.07537C11.4839 4.1326 11.5408 4.21837 11.5723 4.31967C11.6037 4.42098 11.6078 4.53232 11.5841 4.63685C11.5604 4.74137 11.51 4.83339 11.4407 4.89897C11.3714 4.96455 11.2869 5.00013 11.2 5.00033H10V9.00014H10.8C10.9061 9.00014 11.0078 9.05282 11.0828 9.14658C11.1579 9.24034 11.2 9.36751 11.2 9.50012C11.2 9.63272 11.1579 9.75989 11.0828 9.85365C11.0078 9.94742 10.9061 10.0001 10.8 10.0001H1.2C1.09391 10.0001 0.992172 9.94742 0.917157 9.85365C0.842143 9.75989 0.8 9.63272 0.8 9.50012C0.8 9.36751 0.842143 9.24034 0.917157 9.14658C0.992172 9.05282 1.09391 9.00014 1.2 9.00014H2V5.00033H0.8C0.713024 5.00044 0.628387 4.96512 0.558914 4.89971C0.489442 4.8343 0.438918 4.74237 0.415 4.63784V4.63784ZM6.8 8.50016C6.8 8.63277 6.84214 8.75994 6.91716 8.8537C6.99217 8.94746 7.09391 9.00014 7.2 9.00014C7.30609 9.00014 7.40783 8.94746 7.48284 8.8537C7.55786 8.75994 7.6 8.63277 7.6 8.50016V5.5003C7.6 5.3677 7.55786 5.24053 7.48284 5.14677C7.40783 5.053 7.30609 5.00033 7.2 5.00033C7.09391 5.00033 6.99217 5.053 6.91716 5.14677C6.84214 5.24053 6.8 5.3677 6.8 5.5003V8.50016ZM4.4 8.50016C4.4 8.63277 4.44214 8.75994 4.51716 8.8537C4.59217 8.94746 4.69391 9.00014 4.8 9.00014C4.90609 9.00014 5.00783 8.94746 5.08284 8.8537C5.15786 8.75994 5.2 8.63277 5.2 8.50016V5.5003C5.2 5.3677 5.15786 5.24053 5.08284 5.14677C5.00783 5.053 4.90609 5.00033 4.8 5.00033C4.69391 5.00033 4.59217 5.053 4.51716 5.14677C4.44214 5.24053 4.4 5.3677 4.4 5.5003V8.50016Z" fill="white" fill-opacity="0.19"/>
</svg>
