<svg width="12" height="12" viewBox="0 0 12 12" fill="none" xmlns="http://www.w3.org/2000/svg">
<path d="M6 0C4.81331 0 3.65328 0.351894 2.66658 1.01118C1.67989 1.67047 0.910851 2.60754 0.456725 3.7039C0.00259972 4.80025 -0.11622 6.00665 0.115291 7.17054C0.346802 8.33443 0.918247 9.40352 1.75736 10.2426C2.59648 11.0818 3.66557 11.6532 4.82946 11.8847C5.99335 12.1162 7.19975 11.9974 8.2961 11.5433C9.39246 11.0891 10.3295 10.3201 10.9888 9.33342C11.6481 8.34672 12 7.18669 12 6C11.997 4.40964 11.3638 2.88529 10.2393 1.76073C9.11472 0.63617 7.59036 0.0030496 6 0ZM6.69231 8.76923H6.46154V9.23077C6.46154 9.35317 6.41291 9.47057 6.32636 9.55713C6.2398 9.64368 6.12241 9.69231 6 9.69231C5.87759 9.69231 5.7602 9.64368 5.67364 9.55713C5.58709 9.47057 5.53846 9.35317 5.53846 9.23077V8.76923H4.61539C4.49298 8.76923 4.37558 8.7206 4.28903 8.63405C4.20247 8.54749 4.15385 8.4301 4.15385 8.30769C4.15385 8.18528 4.20247 8.06789 4.28903 7.98133C4.37558 7.89478 4.49298 7.84615 4.61539 7.84615H6.69231C6.87592 7.84615 7.05201 7.77321 7.18184 7.64338C7.31168 7.51355 7.38462 7.33746 7.38462 7.15384C7.38462 6.97023 7.31168 6.79414 7.18184 6.66431C7.05201 6.53448 6.87592 6.46154 6.69231 6.46154H5.30769C4.87927 6.46154 4.46839 6.29135 4.16544 5.9884C3.8625 5.68546 3.69231 5.27458 3.69231 4.84615C3.69231 4.41773 3.8625 4.00685 4.16544 3.7039C4.46839 3.40096 4.87927 3.23077 5.30769 3.23077H5.53846V2.76923C5.53846 2.64682 5.58709 2.52943 5.67364 2.44287C5.7602 2.35632 5.87759 2.30769 6 2.30769C6.12241 2.30769 6.2398 2.35632 6.32636 2.44287C6.41291 2.52943 6.46154 2.64682 6.46154 2.76923V3.23077H7.38462C7.50702 3.23077 7.62442 3.27939 7.71097 3.36595C7.79753 3.45251 7.84616 3.5699 7.84616 3.69231C7.84616 3.81471 7.79753 3.93211 7.71097 4.01866C7.62442 4.10522 7.50702 4.15385 7.38462 4.15385H5.30769C5.12408 4.15385 4.94799 4.22678 4.81816 4.35662C4.68833 4.48645 4.61539 4.66254 4.61539 4.84615C4.61539 5.02976 4.68833 5.20586 4.81816 5.33569C4.94799 5.46552 5.12408 5.53846 5.30769 5.53846H6.69231C7.12074 5.53846 7.53162 5.70865 7.83456 6.0116C8.1375 6.31454 8.30769 6.72542 8.30769 7.15384C8.30769 7.58227 8.1375 7.99315 7.83456 8.29609C7.53162 8.59904 7.12074 8.76923 6.69231 8.76923Z" fill="#92FF50"/>
</svg>
