<svg width="15" height="16" viewBox="0 0 15 16" fill="none" xmlns="http://www.w3.org/2000/svg">
<path d="M7.5038 6.66674C8.16704 6.66674 8.80312 6.38579 9.2721 5.88569C9.74107 5.38559 10.0045 4.70732 10.0045 4.00007C10.0045 3.29283 9.74107 2.61455 9.2721 2.11445C8.80312 1.61436 8.16704 1.3334 7.5038 1.3334C6.84057 1.3334 6.20449 1.61436 5.73551 2.11445C5.26653 2.61455 5.00306 3.29283 5.00306 4.00007C5.00306 4.70732 5.26653 5.38559 5.73551 5.88569C6.20449 6.38579 6.84057 6.66674 7.5038 6.66674ZM3.4401 8.66674C3.85462 8.66674 4.25217 8.49114 4.54528 8.17858C4.8384 7.86602 5.00306 7.4421 5.00306 7.00007C5.00306 6.55804 4.8384 6.13412 4.54528 5.82156C4.25217 5.509 3.85462 5.3334 3.4401 5.3334C3.02558 5.3334 2.62803 5.509 2.33492 5.82156C2.04181 6.13412 1.87714 6.55804 1.87714 7.00007C1.87714 7.4421 2.04181 7.86602 2.33492 8.17858C2.62803 8.49114 3.02558 8.66674 3.4401 8.66674ZM13.1305 7.00007C13.1305 7.4421 12.9658 7.86602 12.6727 8.17858C12.3796 8.49114 11.982 8.66674 11.5675 8.66674C11.153 8.66674 10.7554 8.49114 10.4623 8.17858C10.1692 7.86602 10.0045 7.4421 10.0045 7.00007C10.0045 6.55804 10.1692 6.13412 10.4623 5.82156C10.7554 5.509 11.153 5.3334 11.5675 5.3334C11.982 5.3334 12.3796 5.509 12.6727 5.82156C12.9658 6.13412 13.1305 6.55804 13.1305 7.00007ZM7.5038 7.3334C8.33285 7.3334 9.12794 7.68459 9.71417 8.30971C10.3004 8.93484 10.6297 9.78268 10.6297 10.6667V14.6667H4.37788V10.6667C4.37788 9.78268 4.70722 8.93484 5.29344 8.30971C5.87967 7.68459 6.67476 7.3334 7.5038 7.3334ZM3.12751 10.6667C3.12751 10.2047 3.19003 9.75874 3.30756 9.3374L3.20128 9.34674C2.66542 9.40948 2.17014 9.68094 1.81041 10.1091C1.45068 10.5372 1.25181 11.0919 1.25195 11.6667V14.6667H3.12751V10.6667ZM13.7557 14.6667V11.6667C13.7557 11.0723 13.543 10.5003 13.161 10.0674C12.779 9.6345 12.2565 9.37341 11.7 9.3374C11.817 9.75874 11.8801 10.2047 11.8801 10.6667V14.6667H13.7557Z" fill="white" fill-opacity="0.21"/>
</svg>
