<svg width="16" height="16" viewBox="0 0 16 16" fill="none" xmlns="http://www.w3.org/2000/svg">
<path fill-rule="evenodd" clip-rule="evenodd" d="M12.666 2.66634C12.8428 2.66634 13.0124 2.73658 13.1374 2.8616C13.2624 2.98663 13.3327 3.1562 13.3327 3.33301V12.6663C13.3327 12.8432 13.2624 13.0127 13.1374 13.1377C13.0124 13.2628 12.8428 13.333 12.666 13.333H9.99935C9.63116 13.333 9.33268 13.6315 9.33268 13.9997C9.33268 14.3679 9.63116 14.6663 9.99935 14.6663H12.666C13.1964 14.6663 13.7052 14.4556 14.0802 14.0806C14.4553 13.7055 14.666 13.1968 14.666 12.6663V3.33301C14.666 2.80257 14.4553 2.29387 14.0802 1.91879C13.7052 1.54372 13.1964 1.33301 12.666 1.33301H9.99935C9.63116 1.33301 9.33268 1.63148 9.33268 1.99967C9.33268 2.36786 9.63116 2.66634 9.99935 2.66634H12.666Z" fill="#FF1B36"/>
<path fill-rule="evenodd" clip-rule="evenodd" d="M5.80474 4.19526C5.54439 3.93491 5.12228 3.93491 4.86193 4.19526L1.5286 7.5286C1.26825 7.78894 1.26825 8.21106 1.5286 8.4714L4.86193 11.8047C5.12228 12.0651 5.54439 12.0651 5.80474 11.8047C6.06509 11.5444 6.06509 11.1223 5.80474 10.8619L2.94281 8L5.80474 5.13807C6.06509 4.87772 6.06509 4.45561 5.80474 4.19526Z" fill="#FF1B36"/>
<path fill-rule="evenodd" clip-rule="evenodd" d="M10.666 7.99967C10.666 7.63148 10.3675 7.33301 9.99935 7.33301H1.99935C1.63116 7.33301 1.33268 7.63148 1.33268 7.99967C1.33268 8.36786 1.63116 8.66634 1.99935 8.66634H9.99935C10.3675 8.66634 10.666 8.36786 10.666 7.99967Z" fill="#FF1B36"/>
</svg>
