<svg width="12" height="13" viewBox="0 0 12 13" fill="none" xmlns="http://www.w3.org/2000/svg">
<path d="M4.5 7C4.77614 7 5 6.77614 5 6.5C5 6.22386 4.77614 6 4.5 6V7ZM3.64645 6.14645C3.45118 6.34171 3.45118 6.65829 3.64645 6.85355L6.82843 10.0355C7.02369 10.2308 7.34027 10.2308 7.53553 10.0355C7.7308 9.84027 7.7308 9.52369 7.53553 9.32843L4.70711 6.5L7.53553 3.67157C7.7308 3.47631 7.7308 3.15973 7.53553 2.96447C7.34027 2.7692 7.02369 2.7692 6.82843 2.96447L3.64645 6.14645ZM4.5 6H4V7H4.5V6Z" fill="white"/>
</svg>
