<svg width="12" height="13" viewBox="0 0 12 13" fill="none" xmlns="http://www.w3.org/2000/svg">
<path d="M7.5 7C7.22386 7 7 6.77614 7 6.5C7 6.22386 7.22386 6 7.5 6V7ZM8.35355 6.14645C8.54882 6.34171 8.54882 6.65829 8.35355 6.85355L5.17157 10.0355C4.97631 10.2308 4.65973 10.2308 4.46447 10.0355C4.2692 9.84027 4.2692 9.52369 4.46447 9.32843L7.29289 6.5L4.46447 3.67157C4.2692 3.47631 4.2692 3.15973 4.46447 2.96447C4.65973 2.7692 4.97631 2.7692 5.17157 2.96447L8.35355 6.14645ZM7.5 6H8V7H7.5V6Z" fill="white"/>
</svg>
