<svg width="8" height="8" viewBox="0 0 8 8" fill="none" xmlns="http://www.w3.org/2000/svg">
<g clip-path="url(#clip0_347_408)">
<path d="M4 3.29604L6.20668 1.08936C6.45043 0.845612 6.84561 0.845612 7.08936 1.08936V1.08936C7.3331 1.3331 7.3331 1.72828 7.08936 1.97203L4.88267 4.17871L7.08936 6.38539C7.3331 6.62914 7.3331 7.02432 7.08936 7.26807V7.26807C6.84561 7.51181 6.45043 7.51181 6.20668 7.26807L4 5.06138L1.79332 7.26807C1.54957 7.51181 1.15439 7.51181 0.910644 7.26807V7.26807C0.666901 7.02432 0.666901 6.62914 0.910644 6.38539L3.11733 4.17871L0.910644 1.97203C0.666901 1.72828 0.666901 1.3331 0.910644 1.08936V1.08936C1.15439 0.845612 1.54957 0.845612 1.79332 1.08936L4 3.29604Z" fill="white"/>
</g>
<defs>
<clipPath id="clip0_347_408">
<rect width="8" height="8" fill="white"/>
</clipPath>
</defs>
</svg>
