<svg width="584" height="650" viewBox="0 0 584 650" fill="none" xmlns="http://www.w3.org/2000/svg">
<g clip-path="url(#clip0_632_691)">
<path d="M492 125L465.303 525.43C462.966 560.5 461.796 578.037 454.223 591.333C447.553 603.04 437.493 612.45 425.37 618.327C411.6 625 394.023 625 358.873 625H225.125C189.975 625 172.4 625 158.629 618.327C146.505 612.45 136.446 603.04 129.777 591.333C122.202 578.037 121.033 560.5 118.695 525.43L91.9997 125M25.333 125H558.666M425.333 125L416.313 97.9357C407.57 71.7083 403.196 58.5947 395.09 48.8993C387.93 40.3377 378.736 33.7107 368.35 29.626C356.586 25 342.766 25 315.12 25H268.88C241.233 25 227.413 25 215.65 29.626C205.264 33.7107 196.069 40.3377 188.909 48.8993C180.801 58.5947 176.43 71.7083 167.688 97.9357L158.666 125M358.666 258.333V491.667M225.333 258.333V491.667" stroke="white" stroke-width="50" stroke-linecap="round" stroke-linejoin="round"/>
</g>
<defs>
<clipPath id="clip0_632_691">
<rect width="584" height="650" fill="white"/>
</clipPath>
</defs>
</svg>
